<?xml version="1.0" standalone="no"?>
<!DOCTYPE svg PUBLIC "-//W3C//DTD SVG 20010904//EN"
 "http://www.w3.org/TR/2001/REC-SVG-20010904/DTD/svg10.dtd">
<svg version="1.0" xmlns="http://www.w3.org/2000/svg"
 width="100.000000pt" height="100.000000pt" viewBox="0 0 100.000000 100.000000"
 preserveAspectRatio="xMidYMid meet">

<g transform="translate(0.000000,100.000000) scale(0.100000,-0.100000)"
fill="#000000" stroke="none">
<path d="M711 869 c-151 -78 -261 -78 -427 0 -37 17 -69 31 -73 31 -3 0 -4
-25 -3 -55 2 -31 -3 -95 -12 -143 -15 -80 -15 -93 0 -147 l15 -60 -27 -20
c-109 -79 -134 -121 -134 -224 0 -86 19 -137 56 -151 15 -6 97 -9 193 -8 165
3 166 3 169 26 5 31 -42 126 -71 144 -12 8 -45 23 -74 32 -72 24 -103 62 -103
126 0 56 10 68 35 40 20 -22 74 -40 122 -40 21 0 45 -11 73 -35 23 -19 44 -35
47 -35 2 0 23 15 46 34 32 25 55 35 96 39 29 4 69 16 88 27 20 11 38 18 42 15
3 -4 6 -26 6 -50 0 -61 -28 -95 -101 -121 -73 -26 -119 -70 -138 -131 -21 -73
-16 -75 191 -71 200 4 199 3 218 97 14 64 7 130 -19 180 -18 33 -103 111 -122
111 -22 0 -25 16 -9 54 19 46 19 104 -1 184 -10 39 -15 89 -12 128 2 35 4 63
3 63 0 -1 -33 -19 -74 -40z m-314 -160 c92 -35 120 -147 55 -217 -58 -62 -145
-60 -201 4 -26 29 -31 43 -31 84 0 41 5 55 32 86 47 53 87 65 145 43z m290 0
c73 -27 106 -102 78 -175 -21 -56 -64 -87 -121 -87 -127 0 -179 152 -82 239
38 35 75 42 125 23z m-150 -301 c-18 -15 -35 -28 -39 -28 -4 0 -22 13 -40 29
l-32 29 34 39 35 40 37 -41 37 -41 -32 -27z"/>
<path d="M305 596 c-29 -43 0 -96 53 -96 44 0 69 71 36 104 -24 25 -71 20 -89
-8z"/>
<path d="M600 601 c-24 -46 1 -101 46 -101 51 0 80 64 45 99 -27 27 -77 28
-91 2z"/>
</g>
</svg>
